<mxfile host="65bd71144e" modified="2020-11-17T12:51:42.338Z" agent="5.0 (Macintosh; Intel Mac OS X 10_14_6) AppleWebKit/537.36 (KHTML, like Gecko) Code/1.50.1 Chrome/83.0.4103.122 Electron/9.2.1 Safari/537.36" etag="63-abGC3NT5sjYsxg0rV" version="13.6.5">
    <diagram id="j2Iz9gQ44fyXI85G1vfA" name="Page-1">
        <mxGraphModel dx="1040" dy="749" grid="0" gridSize="10" guides="1" tooltips="1" connect="1" arrows="1" fold="1" page="1" pageScale="1" pageWidth="827" pageHeight="1169" background="#F4F1DE" math="0" shadow="0">
            <root>
                <mxCell id="0"/>
                <mxCell id="1" parent="0"/>
                <mxCell id="109" value="&lt;font style=&quot;font-size: 16px&quot;&gt;. . . . . .&lt;/font&gt;" style="text;html=1;strokeColor=none;fillColor=none;align=center;verticalAlign=middle;whiteSpace=wrap;rounded=0;sketch=0;fontColor=#393C56;" parent="1" vertex="1">
                    <mxGeometry x="280" y="371.5" width="58" height="20" as="geometry"/>
                </mxCell>
                <mxCell id="110" value="&lt;font style=&quot;font-size: 14px&quot; color=&quot;#1a1a1a&quot;&gt;Proxy&lt;/font&gt;" style="rounded=1;whiteSpace=wrap;html=1;sketch=0;fillColor=#fff2cc;strokeColor=#d6b656;" parent="1" vertex="1">
                    <mxGeometry x="379" y="600" width="120" height="60" as="geometry"/>
                </mxCell>
                <mxCell id="114" style="edgeStyle=orthogonalEdgeStyle;curved=0;rounded=1;sketch=0;orthogonalLoop=1;jettySize=auto;html=1;exitX=0.5;exitY=1;exitDx=0;exitDy=0;strokeColor=#E07A5F;fillColor=#F2CC8F;fontColor=#393C56;labelBackgroundColor=#F4F1DE;" parent="1" target="110" edge="1">
                    <mxGeometry relative="1" as="geometry">
                        <mxPoint x="439" y="551" as="sourcePoint"/>
                    </mxGeometry>
                </mxCell>
                <mxCell id="117" style="edgeStyle=orthogonalEdgeStyle;curved=0;rounded=1;sketch=0;orthogonalLoop=1;jettySize=auto;html=1;exitX=0.5;exitY=1;exitDx=0;exitDy=0;entryX=0.5;entryY=0;entryDx=0;entryDy=0;strokeColor=#E07A5F;fillColor=#F2CC8F;fontColor=#393C56;endArrow=openAsync;endFill=0;labelBackgroundColor=#F4F1DE;" parent="1" source="38" target="110" edge="1">
                    <mxGeometry relative="1" as="geometry"/>
                </mxCell>
                <mxCell id="118" style="edgeStyle=orthogonalEdgeStyle;curved=0;rounded=1;sketch=0;orthogonalLoop=1;jettySize=auto;html=1;exitX=0.5;exitY=1;exitDx=0;exitDy=0;endArrow=openAsync;endFill=0;strokeColor=#E07A5F;fillColor=#F2CC8F;fontColor=#393C56;labelBackgroundColor=#F4F1DE;" parent="1" edge="1">
                    <mxGeometry relative="1" as="geometry">
                        <mxPoint x="439.61688232421875" y="596.7586257036994" as="targetPoint"/>
                        <mxPoint x="627" y="551" as="sourcePoint"/>
                        <Array as="points">
                            <mxPoint x="627" y="574"/>
                            <mxPoint x="440" y="574"/>
                        </Array>
                    </mxGeometry>
                </mxCell>
                <mxCell id="124" value="" style="endArrow=classic;html=1;strokeColor=#E07A5F;fillColor=#F2CC8F;fontColor=#393C56;entryX=0.5;entryY=0;entryDx=0;entryDy=0;exitX=0.505;exitY=0.997;exitDx=0;exitDy=0;exitPerimeter=0;labelBackgroundColor=#F4F1DE;" parent="1" source="134" target="38" edge="1">
                    <mxGeometry relative="1" as="geometry">
                        <mxPoint x="437" y="171" as="sourcePoint"/>
                        <mxPoint x="268" y="264" as="targetPoint"/>
                    </mxGeometry>
                </mxCell>
                <mxCell id="125" value="&lt;span style=&quot;background-color: rgb(255, 255, 255); font-size: 12px;&quot;&gt;&lt;font color=&quot;#000000&quot; style=&quot;font-size: 12px;&quot;&gt;Route&lt;/font&gt;&lt;/span&gt;" style="edgeLabel;resizable=0;html=1;align=center;verticalAlign=middle;fontSize=12;fontColor=#393C56;labelBackgroundColor=#F4F1DE;" parent="124" connectable="0" vertex="1">
                    <mxGeometry relative="1" as="geometry"/>
                </mxCell>
                <mxCell id="126" value="" style="endArrow=classic;html=1;strokeColor=#E07A5F;fillColor=#F2CC8F;fontColor=#393C56;entryX=0.5;entryY=0;entryDx=0;entryDy=0;labelBackgroundColor=#F4F1DE;" parent="1" source="134" edge="1">
                    <mxGeometry relative="1" as="geometry">
                        <mxPoint x="427" y="162" as="sourcePoint"/>
                        <mxPoint x="439" y="212" as="targetPoint"/>
                    </mxGeometry>
                </mxCell>
                <mxCell id="127" value="&lt;span style=&quot;background-color: rgb(255, 255, 255); font-size: 12px;&quot;&gt;&lt;font color=&quot;#000000&quot; style=&quot;font-size: 12px;&quot;&gt;Route&lt;/font&gt;&lt;/span&gt;" style="edgeLabel;resizable=0;html=1;align=center;verticalAlign=middle;fontSize=12;fontColor=#393C56;labelBackgroundColor=#F4F1DE;" parent="126" connectable="0" vertex="1">
                    <mxGeometry relative="1" as="geometry"/>
                </mxCell>
                <mxCell id="128" value="" style="endArrow=classic;html=1;strokeColor=#E07A5F;fillColor=#F2CC8F;fontColor=#393C56;exitX=0.506;exitY=0.988;exitDx=0;exitDy=0;exitPerimeter=0;labelBackgroundColor=#F4F1DE;entryX=0.5;entryY=0;entryDx=0;entryDy=0;" parent="1" source="134" target="174" edge="1">
                    <mxGeometry relative="1" as="geometry">
                        <mxPoint x="428.9999999999998" y="163" as="sourcePoint"/>
                        <mxPoint x="637" y="173" as="targetPoint"/>
                    </mxGeometry>
                </mxCell>
                <mxCell id="129" value="&lt;span style=&quot;background-color: rgb(255, 255, 255); font-size: 12px;&quot;&gt;&lt;font color=&quot;#000000&quot; style=&quot;font-size: 12px;&quot;&gt;Route&lt;/font&gt;&lt;/span&gt;" style="edgeLabel;resizable=0;html=1;align=center;verticalAlign=middle;fontSize=12;fontColor=#393C56;labelBackgroundColor=#F4F1DE;" parent="128" connectable="0" vertex="1">
                    <mxGeometry relative="1" as="geometry"/>
                </mxCell>
                <mxCell id="134" value="&lt;font color=&quot;#1a1a1a&quot;&gt;&lt;br&gt;&lt;br&gt;Data Warehouse&lt;/font&gt;" style="shape=cylinder2;whiteSpace=wrap;html=1;boundedLbl=1;backgroundOutline=1;size=15;rounded=0;sketch=0;strokeColor=#6c8ebf;fillColor=#dae8fc;fontSize=12;gradientColor=#7ea6e0;" parent="1" vertex="1">
                    <mxGeometry x="373" y="114" width="115" height="60" as="geometry"/>
                </mxCell>
                <mxCell id="147" value="" style="endArrow=classic;html=1;strokeColor=#E07A5F;fillColor=#F2CC8F;fontSize=12;fontColor=#393C56;exitX=0.55;exitY=0.95;exitDx=0;exitDy=0;exitPerimeter=0;labelBackgroundColor=#F4F1DE;" parent="1" source="148" target="134" edge="1">
                    <mxGeometry width="50" height="50" relative="1" as="geometry">
                        <mxPoint x="429.3499999999999" y="82.35000000000002" as="sourcePoint"/>
                        <mxPoint x="612" y="108" as="targetPoint"/>
                    </mxGeometry>
                </mxCell>
                <mxCell id="148" value="&lt;font color=&quot;#4d4d4d&quot;&gt;HDFS&lt;/font&gt;" style="ellipse;shape=cloud;whiteSpace=wrap;html=1;rounded=0;sketch=0;strokeColor=#6c8ebf;fillColor=#dae8fc;fontSize=12;" parent="1" vertex="1">
                    <mxGeometry x="364" y="7" width="120" height="80" as="geometry"/>
                </mxCell>
                <mxCell id="152" style="edgeStyle=orthogonalEdgeStyle;curved=0;rounded=1;sketch=0;orthogonalLoop=1;jettySize=auto;html=1;exitX=1;exitY=0.5;exitDx=0;exitDy=0;entryX=0.16;entryY=0.55;entryDx=0;entryDy=0;entryPerimeter=0;endArrow=openAsync;endFill=0;strokeColor=#E07A5F;fillColor=#F2CC8F;fontSize=12;fontColor=#393C56;labelBackgroundColor=#F4F1DE;" parent="1" source="150" target="148" edge="1">
                    <mxGeometry relative="1" as="geometry"/>
                </mxCell>
                <mxCell id="150" value="MapReduce" style="shape=process;whiteSpace=wrap;html=1;backgroundOutline=1;rounded=0;sketch=0;strokeColor=#E07A5F;fillColor=#F2CC8F;fontSize=12;fontColor=#393C56;" parent="1" vertex="1">
                    <mxGeometry x="116" y="35" width="120" height="33" as="geometry"/>
                </mxCell>
                <mxCell id="153" value="" style="group" vertex="1" connectable="0" parent="1">
                    <mxGeometry x="100" y="213" width="160" height="339" as="geometry"/>
                </mxCell>
                <mxCell id="62" value="" style="group;fillColor=#d5e8d4;strokeColor=#82b366;" parent="153" vertex="1" connectable="0">
                    <mxGeometry width="160" height="339" as="geometry"/>
                </mxCell>
                <mxCell id="38" value="" style="rounded=0;whiteSpace=wrap;html=1;strokeColor=#d79b00;fillColor=#ffe6cc;" parent="62" vertex="1">
                    <mxGeometry width="160" height="339" as="geometry"/>
                </mxCell>
                <mxCell id="51" value="" style="shape=cylinder2;whiteSpace=wrap;html=1;boundedLbl=1;backgroundOutline=1;size=15;strokeColor=#6c8ebf;fillColor=#dae8fc;gradientColor=#7ea6e0;" parent="62" vertex="1">
                    <mxGeometry x="23" y="116" width="45" height="50" as="geometry"/>
                </mxCell>
                <mxCell id="55" value="" style="group;fillColor=#fad9d5;strokeColor=#ae4132;" parent="62" vertex="1" connectable="0">
                    <mxGeometry x="21" y="246" width="120" height="77" as="geometry"/>
                </mxCell>
                <mxCell id="56" value="" style="group;fontColor=#393C56;" parent="55" vertex="1" connectable="0">
                    <mxGeometry width="120" height="77" as="geometry"/>
                </mxCell>
                <mxCell id="57" value="&lt;font color=&quot;#000000&quot;&gt;&lt;br&gt;&lt;br&gt;&lt;br&gt;&lt;font style=&quot;font-size: 14px&quot;&gt;Search Unit&lt;/font&gt;&lt;/font&gt;" style="rounded=0;whiteSpace=wrap;html=1;strokeColor=#ae4132;fillColor=#fad9d5;" parent="56" vertex="1">
                    <mxGeometry width="120" height="77" as="geometry"/>
                </mxCell>
                <mxCell id="58" value="&lt;font color=&quot;#000000&quot;&gt;Index Puller&lt;/font&gt;" style="rounded=0;whiteSpace=wrap;html=1;strokeColor=#56517e;fillColor=#d0cee2;" parent="56" vertex="1">
                    <mxGeometry x="23" y="9" width="71" height="31" as="geometry"/>
                </mxCell>
                <mxCell id="59" value="" style="shape=cylinder2;whiteSpace=wrap;html=1;boundedLbl=1;backgroundOutline=1;size=15;strokeColor=#6c8ebf;fillColor=#dae8fc;gradientColor=#7ea6e0;" parent="62" vertex="1">
                    <mxGeometry x="92" y="116" width="45" height="50" as="geometry"/>
                </mxCell>
                <mxCell id="60" value="" style="shape=cylinder2;whiteSpace=wrap;html=1;boundedLbl=1;backgroundOutline=1;size=15;strokeColor=#6c8ebf;fillColor=#dae8fc;gradientColor=#7ea6e0;" parent="62" vertex="1">
                    <mxGeometry x="23" y="177" width="45" height="50" as="geometry"/>
                </mxCell>
                <mxCell id="61" value="" style="shape=cylinder2;whiteSpace=wrap;html=1;boundedLbl=1;backgroundOutline=1;size=15;strokeColor=#6c8ebf;fillColor=#dae8fc;gradientColor=#7ea6e0;" parent="62" vertex="1">
                    <mxGeometry x="94" y="177" width="45" height="50" as="geometry"/>
                </mxCell>
                <mxCell id="155" value="" style="group" vertex="1" connectable="0" parent="62">
                    <mxGeometry x="21" y="19" width="120" height="77" as="geometry"/>
                </mxCell>
                <mxCell id="154" value="" style="group" vertex="1" connectable="0" parent="155">
                    <mxGeometry width="120" height="77" as="geometry"/>
                </mxCell>
                <mxCell id="52" value="" style="group;fillColor=#d5e8d4;strokeColor=#82b366;" parent="154" vertex="1" connectable="0">
                    <mxGeometry width="120" height="77" as="geometry"/>
                </mxCell>
                <mxCell id="53" value="&lt;font color=&quot;#000000&quot;&gt;&lt;br&gt;&lt;br&gt;&lt;br&gt;&lt;font style=&quot;font-size: 14px&quot;&gt;Index Unit&lt;/font&gt;&lt;/font&gt;" style="rounded=0;whiteSpace=wrap;html=1;strokeColor=#82b366;fillColor=#d5e8d4;" parent="52" vertex="1">
                    <mxGeometry width="120" height="77" as="geometry"/>
                </mxCell>
                <mxCell id="54" value="&lt;font color=&quot;#000000&quot;&gt;Log Puller&lt;/font&gt;" style="rounded=0;whiteSpace=wrap;html=1;strokeColor=#6c8ebf;fillColor=#dae8fc;" parent="52" vertex="1">
                    <mxGeometry x="27" y="9" width="66" height="31" as="geometry"/>
                </mxCell>
                <mxCell id="156" value="" style="group" vertex="1" connectable="0" parent="1">
                    <mxGeometry x="356" y="212" width="160" height="339" as="geometry"/>
                </mxCell>
                <mxCell id="157" value="" style="group;fillColor=#d5e8d4;strokeColor=#82b366;" vertex="1" connectable="0" parent="156">
                    <mxGeometry width="160" height="339" as="geometry"/>
                </mxCell>
                <mxCell id="158" value="" style="rounded=0;whiteSpace=wrap;html=1;strokeColor=#d79b00;fillColor=#ffe6cc;" vertex="1" parent="157">
                    <mxGeometry width="160" height="339" as="geometry"/>
                </mxCell>
                <mxCell id="159" value="" style="shape=cylinder2;whiteSpace=wrap;html=1;boundedLbl=1;backgroundOutline=1;size=15;strokeColor=#6c8ebf;fillColor=#dae8fc;gradientColor=#7ea6e0;" vertex="1" parent="157">
                    <mxGeometry x="23" y="116" width="45" height="50" as="geometry"/>
                </mxCell>
                <mxCell id="160" value="" style="group;fillColor=#fad9d5;strokeColor=#ae4132;" vertex="1" connectable="0" parent="157">
                    <mxGeometry x="21" y="246" width="120" height="77" as="geometry"/>
                </mxCell>
                <mxCell id="161" value="" style="group;fontColor=#393C56;" vertex="1" connectable="0" parent="160">
                    <mxGeometry width="120" height="77" as="geometry"/>
                </mxCell>
                <mxCell id="162" value="&lt;font color=&quot;#000000&quot;&gt;&lt;br&gt;&lt;br&gt;&lt;br&gt;&lt;font style=&quot;font-size: 14px&quot;&gt;Search Unit&lt;/font&gt;&lt;/font&gt;" style="rounded=0;whiteSpace=wrap;html=1;strokeColor=#ae4132;fillColor=#fad9d5;" vertex="1" parent="161">
                    <mxGeometry width="120" height="77" as="geometry"/>
                </mxCell>
                <mxCell id="163" value="&lt;font color=&quot;#000000&quot;&gt;Index Puller&lt;/font&gt;" style="rounded=0;whiteSpace=wrap;html=1;strokeColor=#56517e;fillColor=#d0cee2;" vertex="1" parent="161">
                    <mxGeometry x="23" y="9" width="71" height="31" as="geometry"/>
                </mxCell>
                <mxCell id="164" value="" style="shape=cylinder2;whiteSpace=wrap;html=1;boundedLbl=1;backgroundOutline=1;size=15;strokeColor=#6c8ebf;fillColor=#dae8fc;gradientColor=#7ea6e0;" vertex="1" parent="157">
                    <mxGeometry x="92" y="116" width="45" height="50" as="geometry"/>
                </mxCell>
                <mxCell id="165" value="" style="shape=cylinder2;whiteSpace=wrap;html=1;boundedLbl=1;backgroundOutline=1;size=15;strokeColor=#6c8ebf;fillColor=#dae8fc;gradientColor=#7ea6e0;" vertex="1" parent="157">
                    <mxGeometry x="23" y="177" width="45" height="50" as="geometry"/>
                </mxCell>
                <mxCell id="166" value="" style="shape=cylinder2;whiteSpace=wrap;html=1;boundedLbl=1;backgroundOutline=1;size=15;strokeColor=#6c8ebf;fillColor=#dae8fc;gradientColor=#7ea6e0;" vertex="1" parent="157">
                    <mxGeometry x="94" y="177" width="45" height="50" as="geometry"/>
                </mxCell>
                <mxCell id="167" value="" style="group" vertex="1" connectable="0" parent="157">
                    <mxGeometry x="21" y="19" width="120" height="77" as="geometry"/>
                </mxCell>
                <mxCell id="168" value="" style="group" vertex="1" connectable="0" parent="167">
                    <mxGeometry width="120" height="77" as="geometry"/>
                </mxCell>
                <mxCell id="169" value="" style="group;fillColor=#d5e8d4;strokeColor=#82b366;" vertex="1" connectable="0" parent="168">
                    <mxGeometry width="120" height="77" as="geometry"/>
                </mxCell>
                <mxCell id="170" value="&lt;font color=&quot;#000000&quot;&gt;&lt;br&gt;&lt;br&gt;&lt;br&gt;&lt;font style=&quot;font-size: 14px&quot;&gt;Index Unit&lt;/font&gt;&lt;/font&gt;" style="rounded=0;whiteSpace=wrap;html=1;strokeColor=#82b366;fillColor=#d5e8d4;" vertex="1" parent="169">
                    <mxGeometry width="120" height="77" as="geometry"/>
                </mxCell>
                <mxCell id="171" value="&lt;font color=&quot;#000000&quot;&gt;Log Puller&lt;/font&gt;" style="rounded=0;whiteSpace=wrap;html=1;strokeColor=#6c8ebf;fillColor=#dae8fc;" vertex="1" parent="169">
                    <mxGeometry x="27" y="9" width="66" height="31" as="geometry"/>
                </mxCell>
                <mxCell id="172" value="" style="group" vertex="1" connectable="0" parent="1">
                    <mxGeometry x="553" y="212" width="160" height="339" as="geometry"/>
                </mxCell>
                <mxCell id="173" value="" style="group;fillColor=#d5e8d4;strokeColor=#82b366;" vertex="1" connectable="0" parent="172">
                    <mxGeometry width="160" height="339" as="geometry"/>
                </mxCell>
                <mxCell id="174" value="" style="rounded=0;whiteSpace=wrap;html=1;strokeColor=#d79b00;fillColor=#ffe6cc;" vertex="1" parent="173">
                    <mxGeometry width="160" height="339" as="geometry"/>
                </mxCell>
                <mxCell id="175" value="" style="shape=cylinder2;whiteSpace=wrap;html=1;boundedLbl=1;backgroundOutline=1;size=15;strokeColor=#6c8ebf;fillColor=#dae8fc;gradientColor=#7ea6e0;" vertex="1" parent="173">
                    <mxGeometry x="23" y="116" width="45" height="50" as="geometry"/>
                </mxCell>
                <mxCell id="176" value="" style="group;fillColor=#fad9d5;strokeColor=#ae4132;" vertex="1" connectable="0" parent="173">
                    <mxGeometry x="21" y="246" width="120" height="77" as="geometry"/>
                </mxCell>
                <mxCell id="177" value="" style="group;fontColor=#393C56;" vertex="1" connectable="0" parent="176">
                    <mxGeometry width="120" height="77" as="geometry"/>
                </mxCell>
                <mxCell id="178" value="&lt;font color=&quot;#000000&quot;&gt;&lt;br&gt;&lt;br&gt;&lt;br&gt;&lt;font style=&quot;font-size: 14px&quot;&gt;Search Unit&lt;/font&gt;&lt;/font&gt;" style="rounded=0;whiteSpace=wrap;html=1;strokeColor=#ae4132;fillColor=#fad9d5;" vertex="1" parent="177">
                    <mxGeometry width="120" height="77" as="geometry"/>
                </mxCell>
                <mxCell id="179" value="&lt;font color=&quot;#000000&quot;&gt;Index Puller&lt;/font&gt;" style="rounded=0;whiteSpace=wrap;html=1;strokeColor=#56517e;fillColor=#d0cee2;" vertex="1" parent="177">
                    <mxGeometry x="23" y="9" width="71" height="31" as="geometry"/>
                </mxCell>
                <mxCell id="180" value="" style="shape=cylinder2;whiteSpace=wrap;html=1;boundedLbl=1;backgroundOutline=1;size=15;strokeColor=#6c8ebf;fillColor=#dae8fc;gradientColor=#7ea6e0;" vertex="1" parent="173">
                    <mxGeometry x="92" y="116" width="45" height="50" as="geometry"/>
                </mxCell>
                <mxCell id="181" value="" style="shape=cylinder2;whiteSpace=wrap;html=1;boundedLbl=1;backgroundOutline=1;size=15;strokeColor=#6c8ebf;fillColor=#dae8fc;gradientColor=#7ea6e0;" vertex="1" parent="173">
                    <mxGeometry x="23" y="177" width="45" height="50" as="geometry"/>
                </mxCell>
                <mxCell id="182" value="" style="shape=cylinder2;whiteSpace=wrap;html=1;boundedLbl=1;backgroundOutline=1;size=15;strokeColor=#6c8ebf;fillColor=#dae8fc;gradientColor=#7ea6e0;" vertex="1" parent="173">
                    <mxGeometry x="94" y="177" width="45" height="50" as="geometry"/>
                </mxCell>
                <mxCell id="183" value="" style="group" vertex="1" connectable="0" parent="173">
                    <mxGeometry x="21" y="19" width="120" height="77" as="geometry"/>
                </mxCell>
                <mxCell id="184" value="" style="group" vertex="1" connectable="0" parent="183">
                    <mxGeometry width="120" height="77" as="geometry"/>
                </mxCell>
                <mxCell id="185" value="" style="group;fillColor=#d5e8d4;strokeColor=#82b366;" vertex="1" connectable="0" parent="184">
                    <mxGeometry width="120" height="77" as="geometry"/>
                </mxCell>
                <mxCell id="186" value="&lt;font color=&quot;#000000&quot;&gt;&lt;br&gt;&lt;br&gt;&lt;br&gt;&lt;font style=&quot;font-size: 14px&quot;&gt;Index Unit&lt;/font&gt;&lt;/font&gt;" style="rounded=0;whiteSpace=wrap;html=1;strokeColor=#82b366;fillColor=#d5e8d4;" vertex="1" parent="185">
                    <mxGeometry width="120" height="77" as="geometry"/>
                </mxCell>
                <mxCell id="187" value="&lt;font color=&quot;#000000&quot;&gt;Log Puller&lt;/font&gt;" style="rounded=0;whiteSpace=wrap;html=1;strokeColor=#6c8ebf;fillColor=#dae8fc;" vertex="1" parent="185">
                    <mxGeometry x="27" y="9" width="66" height="31" as="geometry"/>
                </mxCell>
            </root>
        </mxGraphModel>
    </diagram>
</mxfile>